<svg width="773" height="132" viewBox="0 0 773 132" fill="none" xmlns="http://www.w3.org/2000/svg">
<path fill-rule="evenodd" clip-rule="evenodd" d="M66.1725 0C83.8473 0 100.465 6.86509 112.964 19.3322V19.3293C125.463 31.7964 132.345 48.3677 132.345 66C132.345 83.6323 125.463 100.204 112.964 112.671C100.465 125.138 83.8473 132.003 66.1725 132.003C48.4977 132.003 31.8805 125.138 19.3813 112.671C6.88211 100.204 0 83.6293 0 66C0 48.3707 6.88211 31.7964 19.3813 19.3322C31.8805 6.86509 48.4977 0 66.1725 0ZM104.92 77.6172L119.597 92.34L119.606 92.337C120.424 90.6906 121.161 88.9966 121.828 87.2669L108.238 73.6348C109.524 71.4059 110.262 68.853 110.262 66.0594C110.262 63.2658 109.503 60.6506 108.191 58.4038L121.825 44.7271C121.161 42.9975 120.421 41.3035 119.603 39.6571L104.858 54.4482C102.23 52.2371 98.847 50.9027 95.1496 50.9027C92.3974 50.9027 89.8199 51.6427 87.598 52.9325L80.8877 46.2012C82.9349 43.2739 84.1406 39.7165 84.1406 35.8768C84.1406 31.6359 82.6712 27.7368 80.2182 24.6549L92.2759 12.5593C90.6198 11.7539 88.9223 11.0228 87.1832 10.369L76.4675 21.1183C73.5494 19.0648 70.0031 17.8552 66.1755 17.8552C62.3478 17.8552 58.8016 19.0648 55.8834 21.1183L45.1677 10.369C43.4316 11.0228 41.7311 11.7539 40.075 12.5593L52.1328 24.6549C49.6797 27.7368 48.2103 31.6359 48.2103 35.8768C48.2103 39.7165 49.4161 43.2739 51.4632 46.2012L44.3293 53.3575C41.9563 51.8062 39.1299 50.9027 36.0874 50.9027C32.6744 50.9027 29.5282 52.038 26.9981 53.9519L12.748 39.6571C11.9304 41.3035 11.1868 42.9945 10.5231 44.7242L23.4756 57.7173C21.8995 60.1127 20.9781 63.0103 20.9781 66.0624C20.9781 69.1145 21.8788 71.9527 23.4252 74.3302L10.5231 87.2729C11.1868 89.0025 11.9304 90.6935 12.748 92.34L26.927 78.1164C29.466 80.063 32.6389 81.2221 36.0844 81.2221C39.1596 81.2221 42.0185 80.2978 44.4034 78.7168L62.5344 96.9048L40.072 119.438C41.7281 120.243 43.4257 120.974 45.1647 121.628L66.1725 100.554L87.1803 121.628C88.9163 120.974 90.6169 120.243 92.2729 119.438L69.8106 96.9048L87.515 79.1447C89.7547 80.4642 92.3618 81.2221 95.1467 81.2221C98.8736 81.2221 102.287 79.8639 104.92 77.6172ZM53.4155 37.1459C53.4155 37.1667 53.4185 37.1904 53.4215 37.2113C53.4392 37.3985 53.4659 37.5857 53.4926 37.77C53.5014 37.8264 53.5103 37.8799 53.5192 37.9364C53.5429 38.085 53.5696 38.2336 53.5992 38.3792C53.6041 38.402 53.6081 38.4248 53.6121 38.4481C53.6149 38.4639 53.6177 38.4801 53.6209 38.4965C53.6215 38.5 53.6222 38.5035 53.6229 38.507C53.6585 38.6794 53.6999 38.8517 53.7414 39.0241C53.7562 39.0865 53.774 39.1519 53.7918 39.2143C53.8244 39.3361 53.8599 39.4579 53.8954 39.5797C53.9043 39.6094 53.9132 39.64 53.9221 39.6705C53.931 39.701 53.9399 39.7314 53.9488 39.7611C53.9992 39.9187 54.0525 40.0762 54.1058 40.2307L54.1858 40.4447C54.2243 40.5457 54.2628 40.6438 54.3043 40.7419C54.3339 40.8162 54.3636 40.8875 54.3932 40.9618C54.4554 41.1044 54.5176 41.2471 54.5858 41.3868C54.6213 41.464 54.6598 41.5413 54.6983 41.6186C54.7191 41.6602 54.7398 41.701 54.7605 41.7418C54.7813 41.7827 54.802 41.8236 54.8228 41.8652C54.8642 41.9455 54.9057 42.0228 54.9472 42.1C55.0183 42.2308 55.0924 42.3616 55.1694 42.4894C56.0611 43.9842 57.2491 45.28 58.6504 46.2993C59.0326 46.5787 59.4326 46.8372 59.8473 47.072C59.8651 47.0839 59.8858 47.0928 59.9036 47.1047C60.0251 47.1731 60.1465 47.2384 60.271 47.3038C60.3095 47.3246 60.345 47.3425 60.3836 47.3603C60.505 47.4227 60.6235 47.4821 60.745 47.5386C60.7776 47.5535 60.8102 47.5683 60.8457 47.5832C61.1005 47.6991 61.3582 47.8091 61.6219 47.9101C61.6427 47.919 61.6634 47.9279 61.6841 47.9339C61.7878 47.9725 61.8915 48.0082 61.9982 48.0438L62.0454 48.0603C62.1058 48.0815 62.1651 48.1022 62.2263 48.1211C62.3241 48.1538 62.4189 48.1835 62.5166 48.2103C62.6055 48.237 62.6973 48.2638 62.7892 48.2875C62.8163 48.2948 62.8434 48.3023 62.8706 48.3099C62.9326 48.3271 62.995 48.3444 63.0588 48.3589C63.1802 48.3886 63.3047 48.4183 63.4291 48.445C63.4661 48.4525 63.5032 48.4606 63.5402 48.4688C63.5772 48.477 63.6143 48.4852 63.6513 48.4926C63.8202 48.5253 63.989 48.558 64.1609 48.5847C64.222 48.5954 64.2854 48.6036 64.347 48.6117L64.3682 48.6144C64.4956 48.6323 64.626 48.6501 64.7534 48.665C64.8274 48.6739 64.8985 48.6798 64.9726 48.6858C65.1059 48.6977 65.2422 48.7095 65.3785 48.7155C65.4111 48.717 65.4429 48.7192 65.4748 48.7214C65.5066 48.7237 65.5385 48.7259 65.5711 48.7274C65.7696 48.7363 65.968 48.7422 66.1695 48.7422H66.1725C66.3739 48.7422 66.5724 48.7363 66.7709 48.7274C66.8046 48.7258 66.8382 48.7235 66.8714 48.7212C66.8923 48.7197 66.9134 48.7183 66.9339 48.7171C66.9438 48.7165 66.9537 48.716 66.9635 48.7155C67.0998 48.7066 67.2331 48.6977 67.3693 48.6858C67.3955 48.6837 67.4213 48.6812 67.4469 48.6786C67.4576 48.6775 67.4683 48.6765 67.479 48.6754C67.5153 48.6716 67.5516 48.6679 67.5886 48.665C67.7189 48.6501 67.8463 48.6352 67.9737 48.6144C68.0448 48.6055 68.113 48.5966 68.1841 48.5847C68.3529 48.558 68.5218 48.5283 68.6907 48.4956C68.7676 48.4807 68.8446 48.4629 68.9216 48.4451L68.952 48.4384C69.0638 48.4138 69.1775 48.3888 69.2861 48.3589C69.378 48.3351 69.4669 48.3113 69.5557 48.2875C69.6446 48.2638 69.7365 48.237 69.8253 48.2103C69.9231 48.1805 70.0209 48.1508 70.1186 48.1181C70.1957 48.0944 70.2697 48.0676 70.3438 48.0409C70.4504 48.0052 70.5541 47.9695 70.6578 47.9279C70.6756 47.922 70.6963 47.9131 70.7141 47.9071C70.9808 47.8061 71.2415 47.6961 71.4962 47.5772L71.594 47.5327C71.675 47.495 71.7559 47.4548 71.8369 47.4145C71.8774 47.3943 71.9179 47.3742 71.9584 47.3544C71.9762 47.3455 71.9946 47.3358 72.0131 47.3262C72.0317 47.3165 72.0502 47.3068 72.068 47.2979C72.1925 47.2325 72.3139 47.1671 72.4354 47.0988C72.4531 47.0899 72.4708 47.078 72.4885 47.0662C74.4142 45.9695 76.029 44.3854 77.1666 42.4834C77.2437 42.3556 77.3177 42.2248 77.3888 42.0971C77.4332 42.0199 77.4746 41.9398 77.5161 41.8596C77.5406 41.8123 77.5652 41.7647 77.5896 41.7167C77.6066 41.6834 77.6236 41.6498 77.6407 41.6156L77.7562 41.3838C77.8214 41.2441 77.8866 41.1015 77.9488 40.9588C77.9717 40.9085 77.9918 40.8568 78.012 40.8046C78.0204 40.7827 78.0289 40.7608 78.0377 40.7389C78.07 40.6624 78.1005 40.5841 78.1307 40.5069L78.1562 40.4417L78.2361 40.2277C78.2924 40.0732 78.3458 39.9157 78.3961 39.7582L78.4494 39.5799C78.4849 39.4581 78.5206 39.3361 78.5531 39.2113C78.5582 39.1935 78.5631 39.1756 78.5678 39.1577C78.5714 39.1444 78.5748 39.1311 78.5783 39.1177C78.5865 39.0865 78.5946 39.0553 78.6035 39.0241C78.6449 38.852 78.6865 38.6791 78.722 38.507C78.7261 38.4879 78.7295 38.4688 78.7329 38.4501C78.7369 38.4279 78.7409 38.4061 78.7457 38.3852C78.7753 38.2366 78.802 38.088 78.8257 37.9364L78.8389 37.8553L78.8524 37.7729C78.879 37.5887 78.9027 37.4015 78.9235 37.2142C78.9235 37.1934 78.9264 37.1726 78.9294 37.1548C78.9472 36.9794 78.959 36.8041 78.9679 36.6288L78.9768 36.4772C78.9857 36.281 78.9916 36.0849 78.9916 35.8888C78.9916 35.6926 78.9857 35.4846 78.9768 35.2855C78.9768 35.2231 78.9709 35.1606 78.9649 35.0982C78.9561 34.9585 78.9472 34.8218 78.9324 34.6851C78.9294 34.6495 78.9257 34.6138 78.922 34.5781C78.9183 34.5425 78.9146 34.5068 78.9116 34.4712C78.8968 34.3404 78.879 34.2067 78.8613 34.0759C78.8524 34.0075 78.8435 33.9422 78.8316 33.8738C78.805 33.6955 78.7724 33.5172 78.7368 33.3418C78.7309 33.3091 78.7235 33.2765 78.7161 33.2438C78.7087 33.2111 78.7013 33.1784 78.6954 33.1457C78.6687 33.0179 78.6391 32.8901 78.6065 32.7623C78.5932 32.7053 78.5775 32.6496 78.5618 32.5935C78.5529 32.5619 78.5439 32.5299 78.5354 32.4978C78.5258 32.4648 78.5166 32.4313 78.5074 32.3978C78.4909 32.3378 78.4744 32.2775 78.4554 32.2185C78.4442 32.1827 78.4331 32.1465 78.4219 32.1101L78.4074 32.0627C78.3937 32.0183 78.3801 31.9739 78.3665 31.9302C78.3598 31.9101 78.3531 31.8902 78.3464 31.8703C78.3398 31.8506 78.3331 31.8309 78.3265 31.8113C78.3132 31.7719 78.2998 31.7326 78.2865 31.6924C78.2512 31.5892 78.216 31.489 78.1807 31.3887L78.1799 31.3863L78.1443 31.2972C78.0465 31.0446 77.9428 30.7949 77.8332 30.5512C77.8243 30.5334 77.8162 30.5156 77.808 30.4977C77.7999 30.4799 77.7917 30.462 77.7829 30.4442C77.7266 30.3224 77.6673 30.2035 77.6081 30.0846C77.5977 30.0653 77.5881 30.046 77.5784 30.0267C77.5689 30.0076 77.5591 29.9878 77.5488 29.9687C77.5276 29.929 77.5067 29.8893 77.4857 29.8496L77.4843 29.8469C77.4415 29.7656 77.3987 29.6844 77.3533 29.6032C77.3414 29.5824 77.3296 29.5646 77.3177 29.5437C76.2245 27.612 74.6455 25.9953 72.7494 24.8541C72.622 24.7768 72.4946 24.7025 72.3643 24.6312C72.2873 24.5866 72.2073 24.545 72.1273 24.5034L71.8873 24.3786C71.8103 24.3399 71.7333 24.3013 71.6533 24.2627C71.514 24.1973 71.3748 24.1319 71.2326 24.0725C71.1585 24.0398 71.0844 24.0101 71.0104 23.9803L70.7171 23.8644L70.6576 23.8418C70.6053 23.8218 70.5522 23.8014 70.5008 23.7842C70.3468 23.7277 70.1927 23.6772 70.0357 23.6267C69.9735 23.6089 69.9142 23.591 69.852 23.5702C69.7335 23.5346 69.612 23.4989 69.4906 23.4662L69.4561 23.4567C69.4032 23.4421 69.3516 23.4279 69.298 23.4157C69.1291 23.3741 68.9573 23.3325 68.7855 23.2968C68.7631 23.292 68.7399 23.2881 68.7163 23.2841C68.6961 23.2806 68.6756 23.2771 68.6551 23.273C68.5202 23.2454 68.3827 23.2229 68.2474 23.2008L68.2167 23.1958L68.0478 23.169C67.8641 23.1423 67.6804 23.1185 67.4938 23.0977C67.473 23.0977 67.4493 23.0947 67.4256 23.0917C67.2538 23.0739 67.082 23.062 66.9101 23.0531C66.8761 23.0531 66.8407 23.0504 66.8058 23.0477C66.7891 23.0464 66.7724 23.0452 66.7561 23.0442C66.5606 23.0353 66.368 23.0293 66.1695 23.0293C65.974 23.0293 65.7784 23.0353 65.5829 23.0442C65.5489 23.0442 65.5135 23.0469 65.4786 23.0496C65.4618 23.0509 65.4452 23.0521 65.4289 23.0531C65.2541 23.062 65.0822 23.0769 64.9104 23.0917C64.8897 23.0917 64.866 23.0947 64.8452 23.0977C64.6586 23.1155 64.4749 23.1423 64.2912 23.169C64.2349 23.1779 64.1786 23.1868 64.1253 23.1958C63.9772 23.2195 63.8291 23.2463 63.6839 23.276C63.6631 23.2805 63.6417 23.2842 63.6202 23.2879C63.5987 23.2916 63.5772 23.2953 63.5565 23.2998C63.3847 23.3354 63.2128 23.3771 63.044 23.4187C62.9788 23.4335 62.9166 23.4513 62.8544 23.4692C62.7329 23.5019 62.6114 23.5375 62.49 23.5732C62.4603 23.5821 62.43 23.591 62.3996 23.5999C62.3693 23.6088 62.3389 23.6178 62.3092 23.6267C62.184 23.667 62.0606 23.7092 61.9361 23.7518L61.8412 23.7842C61.7701 23.811 61.6989 23.8377 61.6249 23.8644C61.5763 23.8836 61.527 23.9028 61.4777 23.922C61.428 23.9413 61.3775 23.961 61.3286 23.9803C61.2546 24.0101 61.1805 24.0398 61.1094 24.0725C60.9672 24.1349 60.825 24.1973 60.6857 24.2656C60.6472 24.2835 60.6087 24.3028 60.5702 24.3221C60.5317 24.3414 60.4931 24.3608 60.4547 24.3786C60.3718 24.4201 60.2919 24.4617 60.212 24.5032C60.132 24.5448 60.0547 24.5866 59.9777 24.6282C59.8473 24.6995 59.717 24.7738 59.5896 24.8511C58.0994 25.7457 56.8077 26.9374 55.7915 28.3431C55.5131 28.7265 55.2583 29.1277 55.0213 29.5408L55.0117 29.5572C55.0032 29.5715 54.9951 29.5851 54.9887 29.6002C54.9205 29.7221 54.8554 29.8439 54.7931 29.9658C54.7828 29.9851 54.7731 30.0044 54.7635 30.0237C54.7539 30.043 54.7443 30.0623 54.7339 30.0817C54.6746 30.2005 54.6154 30.3194 54.5591 30.4413C54.5413 30.4769 54.5265 30.5126 54.5117 30.5483C54.3991 30.7979 54.2925 31.0505 54.1947 31.3061C54.1858 31.3328 54.174 31.3596 54.1651 31.3834C54.1266 31.4844 54.091 31.5883 54.0555 31.6923C54.0288 31.7696 54.0021 31.847 53.9755 31.9272C53.9683 31.9501 53.9612 31.9731 53.9541 31.9963C53.9464 32.0212 53.9388 32.0462 53.9311 32.0711C53.9163 32.1195 53.9014 32.1679 53.8866 32.2155C53.8599 32.3076 53.8333 32.3997 53.8096 32.4919L53.7385 32.7593C53.7088 32.873 53.684 32.9892 53.6597 33.1033L53.6525 33.1368C53.6473 33.162 53.6417 33.1869 53.6361 33.2117C53.6259 33.2568 53.6157 33.3018 53.6081 33.3478C53.5726 33.5201 53.5429 33.6955 53.5163 33.8708C53.5044 33.9392 53.4955 34.0075 53.4866 34.0759L53.4809 34.1182C53.465 34.2343 53.4495 34.3486 53.4363 34.4652C53.428 34.5314 53.4223 34.6001 53.4168 34.6666L53.4155 34.6822C53.4037 34.8188 53.3918 34.9557 53.3859 35.0923C53.3844 35.1235 53.3822 35.1555 53.38 35.1875C53.3778 35.2194 53.3755 35.2513 53.3741 35.2825C53.3652 35.4816 53.3592 35.6837 53.3592 35.8858C53.3592 36.0879 53.3652 36.2781 53.3741 36.4742C53.3741 36.5083 53.3768 36.5438 53.3794 36.5788C53.3807 36.5956 53.382 36.6124 53.3829 36.6288C53.3918 36.804 53.4066 36.9763 53.4214 37.1486L53.4155 37.1459ZM77.3593 49.9666C74.287 52.4273 70.4001 53.9014 66.1725 53.9014C61.9449 53.9014 58.058 52.4244 54.9857 49.9666L48.0977 56.8763C50.0382 59.4262 51.1936 62.6091 51.1936 66.0624C51.1936 69.5158 50.0619 72.6422 48.154 75.1802L66.1725 93.2553L83.5718 75.8013C81.3676 73.1682 80.0374 69.7713 80.0374 66.0624C80.0374 62.3535 81.3913 58.9001 83.6311 56.2581L77.3593 49.9666Z" fill="url(#paint0_linear_598_3829)"/>
<path d="M171.684 53.0968C171.661 52.9356 171.642 52.7079 171.642 52.3996V44.365H222.086V23.5005H143.4V44.365H151.831V52.3996C151.831 59.1821 153.594 64.5417 157.069 68.3171C160.606 72.1637 165.713 74.1178 172.242 74.1178H201.769V83.158C201.769 87.5927 200.899 89.7555 200.171 90.7895C199.126 92.2693 196.308 92.5776 194.129 92.5776H147.173V113.442H194.379C199.159 113.442 203.32 112.783 206.734 111.488C210.289 110.141 213.226 108.12 215.476 105.479C217.694 102.87 219.297 99.6067 220.242 95.7696C221.136 92.146 221.585 87.9057 221.585 83.158V74.1178H225.864V53.1253H172.242C172.01 53.1253 171.826 53.1158 171.689 53.1016L171.684 53.0968Z" fill="url(#paint1_linear_598_3829)"/>
<path d="M273.764 44.3695H310.497V23.505H244.388V44.3695H253.821V53.3764H241.873V74.369H253.821V83.1578C253.821 87.915 254.275 92.16 255.164 95.7694C256.109 99.6017 257.712 102.87 259.93 105.478C262.176 108.12 265.117 110.141 268.667 111.488C272.081 112.787 276.242 113.442 281.027 113.442H317.074L321.798 92.5774H281.277C279.155 92.5774 276.407 92.2691 275.363 90.7892C274.634 89.76 273.764 87.5972 273.764 83.1578V74.369H325.59V53.3764H273.764V44.3695Z" fill="url(#paint2_linear_598_3829)"/>
<path d="M387.411 15.1858H367.468V23.505H340.551V113.442H360.366V44.3695H394.518V83.1578C394.518 86.6534 393.95 89.281 392.877 90.756C391.78 92.2596 389.01 92.5774 386.877 92.5774H378.026L382.924 113.442H387.128C391.908 113.442 396.069 112.783 399.482 111.488C403.038 110.141 405.974 108.12 408.225 105.478C410.442 102.87 412.045 99.6065 412.991 95.7694C413.88 92.1458 414.334 87.9055 414.334 83.1578V44.3695H417.355V23.505H387.416V15.1858H387.411Z" fill="url(#paint3_linear_598_3829)"/>
<path d="M432.648 53.9126C432.648 63.0856 434.057 71.1202 436.838 77.7936C439.632 84.505 443.537 90.1966 448.44 94.7072C453.32 99.1988 459.14 102.671 465.731 105.018C471.4 107.039 477.481 108.424 483.85 109.14V116.724H503.665V61.7006H483.85V88.3848C480.214 87.9389 476.705 87.1374 473.386 85.9943C469.249 84.5761 465.585 82.4608 462.493 79.7051C459.424 76.9731 456.961 73.5344 455.173 69.4886C453.377 65.4334 452.469 60.4912 452.469 54.7948V44.365H506.436V23.5005H432.653V53.9126H432.648Z" fill="url(#paint4_linear_598_3829)"/>
<path d="M522.445 109.923L596.228 109.965V23.505H522.445V109.923ZM576.412 44.3695V89.0533H542.261V44.3695H576.412ZM569.245 107.418H549.429V116.719H569.245V107.418Z" fill="url(#paint5_linear_598_3829)"/>
<path d="M678.162 59.3478C677.377 57.1803 676.337 54.6238 675.065 51.7448C674.058 49.4729 672.711 46.684 671.037 43.4303L687.841 34.6131L677.798 16.1201L633.812 39.6739C633.713 38.3221 633.666 23.4955 633.666 23.4955H612.488V109.96H633.666V75.7729L633.713 63.0948L653.477 52.9353C654.999 55.8333 656.219 58.2475 657.103 60.1304C658.228 62.5209 659.113 64.6031 659.737 66.3248C662.408 73.7002 663.013 80.402 661.538 86.2454C660.058 92.0935 657.084 97.0595 652.701 101.001L650.191 103.259L666.053 116.586L667.94 114.926C670.933 112.289 673.59 109.007 675.836 105.175C678.072 101.352 679.751 97.0025 680.819 92.2453C681.883 87.5165 682.266 82.3324 681.954 76.8306C681.642 71.3144 680.366 65.4331 678.162 59.3478Z" fill="url(#paint6_linear_598_3829)"/>
<path d="M753.416 23.505V86.5253H719.265V23.505H699.449V113.442H719.265V107.39H753.416V113.442H773.232V23.505H753.416Z" fill="url(#paint7_linear_598_3829)"/>
<defs>
<linearGradient id="paint0_linear_598_3829" x1="66.1725" y1="0" x2="66.1725" y2="132.003" gradientUnits="userSpaceOnUse">
<stop stop-color="#BB0ED1"/>
<stop offset="0.0001" stop-color="#BB0ED1"/>
<stop offset="0.713354" stop-color="#950EAB"/>
</linearGradient>
<linearGradient id="paint1_linear_598_3829" x1="184.632" y1="23.5005" x2="184.632" y2="113.442" gradientUnits="userSpaceOnUse">
<stop stop-color="#BB0ED1"/>
<stop offset="0.0001" stop-color="#BB0ED1"/>
<stop offset="0.713354" stop-color="#950EAB"/>
</linearGradient>
<linearGradient id="paint2_linear_598_3829" x1="283.731" y1="23.505" x2="283.731" y2="113.442" gradientUnits="userSpaceOnUse">
<stop stop-color="#BB0ED1"/>
<stop offset="0.0001" stop-color="#BB0ED1"/>
<stop offset="0.713354" stop-color="#950EAB"/>
</linearGradient>
<linearGradient id="paint3_linear_598_3829" x1="378.953" y1="15.1858" x2="378.953" y2="113.442" gradientUnits="userSpaceOnUse">
<stop stop-color="#BB0ED1"/>
<stop offset="0.0001" stop-color="#BB0ED1"/>
<stop offset="0.713354" stop-color="#950EAB"/>
</linearGradient>
<linearGradient id="paint4_linear_598_3829" x1="469.542" y1="23.5005" x2="469.542" y2="116.724" gradientUnits="userSpaceOnUse">
<stop stop-color="#BB0ED1"/>
<stop offset="0.0001" stop-color="#BB0ED1"/>
<stop offset="0.713354" stop-color="#950EAB"/>
</linearGradient>
<linearGradient id="paint5_linear_598_3829" x1="559.337" y1="23.505" x2="559.337" y2="116.719" gradientUnits="userSpaceOnUse">
<stop stop-color="#BB0ED1"/>
<stop offset="0.0001" stop-color="#BB0ED1"/>
<stop offset="0.713354" stop-color="#950EAB"/>
</linearGradient>
<linearGradient id="paint6_linear_598_3829" x1="650.165" y1="16.1201" x2="650.165" y2="116.586" gradientUnits="userSpaceOnUse">
<stop stop-color="#BB0ED1"/>
<stop offset="0.0001" stop-color="#BB0ED1"/>
<stop offset="0.713354" stop-color="#950EAB"/>
</linearGradient>
<linearGradient id="paint7_linear_598_3829" x1="736.341" y1="23.505" x2="736.341" y2="113.442" gradientUnits="userSpaceOnUse">
<stop stop-color="#BB0ED1"/>
<stop offset="0.0001" stop-color="#BB0ED1"/>
<stop offset="0.713354" stop-color="#950EAB"/>
</linearGradient>
</defs>
</svg>
